{
  "accessors": [
    {
      "bufferView": 2,
      "componentType": 5126,
      "count": 330,
      "max": [
        38.07639694213867,
        64.312255859375,
        10.356844902038574
      ],
      "min": [
        -50.0,
        0.4999961853027344,
        -48.82542037963867
      ],
      "type": "VEC3"
    },
    {
      "bufferView": 2,
      "byteOffset": 3960,
      "componentType": 5126,
      "count": 330,
      "max": [
        1.0,
        1.0,
        1.0
      ],
      "min": [
        -1.0,
        -1.0,
        -1.0
      ],
      "type": "VEC3"
    },
    {
      "bufferView": 1,
      "componentType": 5126,
      "count": 330,
      "max": [
        0.988759458065033,
        0.9654738306999207
      ],
      "min": [
        0.0078125,
        0.10988081991672516
      ],
      "type": "VEC2"
    },
    {
      "bufferView": 0,
      "componentType": 5125,
      "count": 522,
      "type": "SCALAR"
    },
    {
      "bufferView": 2,
      "byteOffset": 7920,
      "componentType": 5126,
      "count": 647,
      "max": [
        9.589730262756348,
        66.71332550048828,
        45.862152099609375
      ],
      "min": [
        -45.27940368652344,
        1.0049023628234863,
        -48.803279876708984
      ],
      "type": "VEC3"
    },
    {
      "bufferView": 2,
      "byteOffset": 15684,
      "componentType": 5126,
      "count": 647,
      "max": [
        1.0,
        1.0,
        1.0
      ],
      "min": [
        -1.0,
        -1.0,
        -1.0
      ],
      "type": "VEC3"
    },
    {
      "bufferView": 1,
      "byteOffset": 2640,
      "componentType": 5126,
      "count": 647,
      "max": [
        0.937396764755249,
        0.9368098974227905
      ],
      "min": [
        0.0078125,
        0.0078125
      ],
      "type": "VEC2"
    },
    {
      "bufferView": 0,
      "byteOffset": 2088,
      "componentType": 5125,
      "count": 1248,
      "type": "SCALAR"
    },
    {
      "bufferView": 2,
      "byteOffset": 23448,
      "componentType": 5126,
      "count": 3057,
      "max": [
        42.81449508666992,
        58.44452667236328,
        21.854835510253906
      ],
      "min": [
        -45.03849792480469,
        1.0049023628234863,
        -50.49849319458008
      ],
      "type": "VEC3"
    },
    {
      "bufferView": 2,
      "byteOffset": 60132,
      "componentType": 5126,
      "count": 3057,
      "max": [
        1.0,
        1.0,
        1.0
      ],
      "min": [
        -1.0,
        -1.0,
        -1.0
      ],
      "type": "VEC3"
    },
    {
      "bufferView": 1,
      "byteOffset": 7816,
      "componentType": 5126,
      "count": 3057,
      "max": [
        0.988884449005127,
        0.9834627509117126
      ],
      "min": [
        0.0078125,
        0.0078125
      ],
      "type": "VEC2"
    },
    {
      "bufferView": 0,
      "byteOffset": 7080,
      "componentType": 5125,
      "count": 9501,
      "type": "SCALAR"
    },
    {
      "bufferView": 2,
      "byteOffset": 96816,
      "componentType": 5126,
      "count": 519,
      "max": [
        44.03544616699219,
        72.84228515625,
        19.500764846801758
      ],
      "min": [
        -50.0,
        0.4999960660934448,
        -47.40182876586914
      ],
      "type": "VEC3"
    },
    {
      "bufferView": 2,
      "byteOffset": 103044,
      "componentType": 5126,
      "count": 519,
      "max": [
        1.0,
        1.0,
        1.0
      ],
      "min": [
        -1.0,
        -1.0,
        -1.0
      ],
      "type": "VEC3"
    },
    {
      "bufferView": 1,
      "byteOffset": 32272,
      "componentType": 5126,
      "count": 519,
      "max": [
        0.9887593984603882,
        0.9850614666938782
      ],
      "min": [
        0.0078125,
        0.0078125
      ],
      "type": "VEC2"
    },
    {
      "bufferView": 0,
      "byteOffset": 45084,
      "componentType": 5125,
      "count": 792,
      "type": "SCALAR"
    },
    {
      "bufferView": 2,
      "byteOffset": 109272,
      "componentType": 5126,
      "count": 812,
      "max": [
        5.432782173156738,
        49.07461929321289,
        45.642398834228516
      ],
      "min": [
        -44.348751068115234,
        0.4999961853027344,
        -48.40607833862305
      ],
      "type": "VEC3"
    },
    {
      "bufferView": 2,
      "byteOffset": 119016,
      "componentType": 5126,
      "count": 812,
      "max": [
        1.0,
        1.0,
        1.0
      ],
      "min": [
        -1.0,
        -1.0,
        -1.0
      ],
      "type": "VEC3"
    },
    {
      "bufferView": 1,
      "byteOffset": 36424,
      "componentType": 5126,
      "count": 812,
      "max": [
        0.9890077114105225,
        0.9812130331993103
      ],
      "min": [
        0.0078125,
        0.0505652092397213
      ],
      "type": "VEC2"
    },
    {
      "bufferView": 0,
      "byteOffset": 48252,
      "componentType": 5125,
      "count": 1332,
      "type": "SCALAR"
    },
    {
      "bufferView": 2,
      "byteOffset": 128760,
      "componentType": 5126,
      "count": 352,
      "max": [
        22.956640243530273,
        72.84228515625,
        34.90343475341797
      ],
      "min": [
        -50.0,
        0.4999963045120239,
        -47.40182876586914
      ],
      "type": "VEC3"
    },
    {
      "bufferView": 2,
      "byteOffset": 132984,
      "componentType": 5126,
      "count": 352,
      "max": [
        1.0,
        1.0,
        1.0
      ],
      "min": [
        -1.0,
        -1.0,
        -1.0
      ],
      "type": "VEC3"
    },
    {
      "bufferView": 1,
      "byteOffset": 42920,
      "componentType": 5126,
      "count": 352,
      "max": [
        0.9888717532157898,
        0.9876792430877686
      ],
      "min": [
        0.029415346682071686,
        0.0078125
      ],
      "type": "VEC2"
    },
    {
      "bufferView": 0,
      "byteOffset": 53580,
      "componentType": 5125,
      "count": 552,
      "type": "SCALAR"
    },
    {
      "bufferView": 2,
      "byteOffset": 137208,
      "componentType": 5126,
      "count": 1224,
      "max": [
        6.644009590148926,
        9.676338195800781,
        18.657428741455078
      ],
      "min": [
        -12.9127779006958,
        0.8980429172515869,
        -44.1477165222168
      ],
      "type": "VEC3"
    },
    {
      "bufferView": 2,
      "byteOffset": 151896,
      "componentType": 5126,
      "count": 1224,
      "max": [
        1.0,
        1.0,
        1.0
      ],
      "min": [
        -1.0,
        -1.0,
        -1.0
      ],
      "type": "VEC3"
    },
    {
      "bufferView": 1,
      "byteOffset": 45736,
      "componentType": 5126,
      "count": 1224,
      "max": [
        0.988872230052948,
        0.9834603667259216
      ],
      "min": [
        0.046697624027729034,
        0.0078125
      ],
      "type": "VEC2"
    },
    {
      "bufferView": 0,
      "byteOffset": 55788,
      "componentType": 5125,
      "count": 1902,
      "type": "SCALAR"
    },
    {
      "bufferView": 2,
      "byteOffset": 166584,
      "componentType": 5126,
      "count": 264,
      "max": [
        50.0,
        100.5,
        51.000003814697266
      ],
      "min": [
        -51.0,
        -0.500001072883606,
        -50.0
      ],
      "type": "VEC3"
    },
    {
      "bufferView": 2,
      "byteOffset": 169752,
      "componentType": 5126,
      "count": 264,
      "max": [
        1.0,
        1.0,
        1.0
      ],
      "min": [
        -1.0,
        -1.0,
        -1.0
      ],
      "type": "VEC3"
    },
    {
      "bufferView": 1,
      "byteOffset": 55528,
      "componentType": 5126,
      "count": 264,
      "max": [
        0.9888848662376404,
        0.9859557151794434
      ],
      "min": [
        0.0078125,
        0.0078125
      ],
      "type": "VEC2"
    },
    {
      "bufferView": 0,
      "byteOffset": 63396,
      "componentType": 5125,
      "count": 468,
      "type": "SCALAR"
    },
    {
      "bufferView": 2,
      "byteOffset": 172920,
      "componentType": 5126,
      "count": 24,
      "max": [
        49.99749755859375,
        0.4999961853027344,
        50.997501373291016
      ],
      "min": [
        -49.99749755859375,
        -0.5000038146972656,
        -48.99748611450195
      ],
      "type": "VEC3"
    },
    {
      "bufferView": 2,
      "byteOffset": 173208,
      "componentType": 5126,
      "count": 24,
      "max": [
        1.0,
        1.0,
        1.0
      ],
      "min": [
        -1.0,
        -1.0,
        -1.0
      ],
      "type": "VEC3"
    },
    {
      "bufferView": 1,
      "byteOffset": 57640,
      "componentType": 5126,
      "count": 24,
      "max": [
        0.8873334527015686,
        0.7628650665283203
      ],
      "min": [
        0.0078125,
        0.0078125
      ],
      "type": "VEC2"
    },
    {
      "bufferView": 0,
      "byteOffset": 65268,
      "componentType": 5125,
      "count": 36,
      "type": "SCALAR"
    },
    {
      "bufferView": 2,
      "byteOffset": 173496,
      "componentType": 5126,
      "count": 6127,
      "max": [
        6.395528793334961,
        63.3831672668457,
        42.19073486328125
      ],
      "min": [
        -42.78743362426758,
        9.176225662231445,
        -46.299400329589844
      ],
      "type": "VEC3"
    },
    {
      "bufferView": 2,
      "byteOffset": 247020,
      "componentType": 5126,
      "count": 6127,
      "max": [
        1.0,
        1.0,
        1.0
      ],
      "min": [
        -1.0,
        -1.0,
        -1.0
      ],
      "type": "VEC3"
    },
    {
      "bufferView": 1,
      "byteOffset": 57832,
      "componentType": 5126,
      "count": 6127,
      "max": [
        0.9892117381095886,
        0.9921875
      ],
      "min": [
        0.0078125,
        0.021696103736758232
      ],
      "type": "VEC2"
    },
    {
      "bufferView": 0,
      "byteOffset": 65412,
      "componentType": 5125,
      "count": 17892,
      "type": "SCALAR"
    },
    {
      "bufferView": 2,
      "byteOffset": 320544,
      "componentType": 5126,
      "count": 24,
      "max": [
        -14.699101448059082,
        9.176225662231445,
        -44.09636688232422
      ],
      "min": [
        -16.004772186279297,
        9.052413940429688,
        -46.16095733642578
      ],
      "type": "VEC3"
    },
    {
      "bufferView": 2,
      "byteOffset": 320832,
      "componentType": 5126,
      "count": 24,
      "max": [
        0.9987480044364929,
        1.0,
        0.9987480640411377
      ],
      "min": [
        -0.9987480044364929,
        -1.0,
        -0.9987478852272034
      ],
      "type": "VEC3"
    },
    {
      "bufferView": 1,
      "byteOffset": 106848,
      "componentType": 5126,
      "count": 24,
      "max": [
        0.9888849854469299,
        0.9523432850837708
      ],
      "min": [
        0.5824482440948486,
        0.021710459142923355
      ],
      "type": "VEC2"
    },
    {
      "bufferView": 0,
      "byteOffset": 136980,
      "componentType": 5125,
      "count": 36,
      "type": "SCALAR"
    },
    {
      "bufferView": 2,
      "byteOffset": 321120,
      "componentType": 5126,
      "count": 24,
      "max": [
        -12.573492050170898,
        9.428462982177734,
        -44.036922454833984
      ],
      "min": [
        -13.788057327270508,
        9.043596267700195,
        -46.051273345947266
      ],
      "type": "VEC3"
    },
    {
      "bufferView": 2,
      "byteOffset": 321408,
      "componentType": 5126,
      "count": 24,
      "max": [
        0.9788885712623596,
        0.9788658022880554,
        0.9999560713768005
      ],
      "min": [
        -0.9788861274719238,
        -0.9788655638694763,
        -0.999955952167511
      ],
      "type": "VEC3"
    },
    {
      "bufferView": 1,
      "byteOffset": 107040,
      "componentType": 5126,
      "count": 24,
      "max": [
        0.9888848662376404,
        0.9446713924407959
      ],
      "min": [
        0.7120653390884399,
        0.06296520680189133
      ],
      "type": "VEC2"
    },
    {
      "bufferView": 0,
      "byteOffset": 137124,
      "componentType": 5125,
      "count": 36,
      "type": "SCALAR"
    },
    {
      "bufferView": 2,
      "byteOffset": 321696,
      "componentType": 5126,
      "count": 3300,
      "max": [
        6.297121524810791,
        15.34196662902832,
        -15.597488403320313
      ],
      "min": [
        -13.477489471435547,
        14.90612506866455,
        -19.731189727783203
      ],
      "type": "VEC3"
    },
    {
      "bufferView": 2,
      "byteOffset": 361296,
      "componentType": 5126,
      "count": 3300,
      "max": [
        0.9989435076713562,
        0.9994333982467651,
        0.976191520690918
      ],
      "min": [
        -0.9989434480667114,
        -0.9994342923164368,
        -0.9761922955513
      ],
      "type": "VEC3"
    },
    {
      "bufferView": 1,
      "byteOffset": 107232,
      "componentType": 5126,
      "count": 3300,
      "max": [
        0.9780169725418091,
        0.9830172657966614
      ],
      "min": [
        0.3318552076816559,
        0.31500324606895447
      ],
      "type": "VEC2"
    },
    {
      "bufferView": 0,
      "byteOffset": 137268,
      "componentType": 5125,
      "count": 4932,
      "type": "SCALAR"
    },
    {
      "bufferView": 2,
      "byteOffset": 400896,
      "componentType": 5126,
      "count": 80,
      "max": [
        3.1071972846984863,
        14.936827659606934,
        -19.942848205566406
      ],
      "min": [
        -11.633565902709961,
        14.772336959838867,
        -22.553909301757813
      ],
      "type": "VEC3"
    },
    {
      "bufferView": 2,
      "byteOffset": 401856,
      "componentType": 5126,
      "count": 80,
      "max": [
        0.9034326672554016,
        1.0,
        0.9057519435882568
      ],
      "min": [
        -0.9034329652786255,
        -1.0,
        -0.9057506322860718
      ],
      "type": "VEC3"
    },
    {
      "bufferView": 1,
      "byteOffset": 133632,
      "componentType": 5126,
      "count": 80,
      "max": [
        0.9889839291572571,
        0.5229682922363281
      ],
      "min": [
        0.9756200909614563,
        0.031702764332294464
      ],
      "type": "VEC2"
    },
    {
      "bufferView": 0,
      "byteOffset": 156996,
      "componentType": 5125,
      "count": 168,
      "type": "SCALAR"
    },
    {
      "bufferView": 2,
      "byteOffset": 402816,
      "componentType": 5126,
      "count": 90,
      "max": [
        2.9431843757629395,
        14.949189186096191,
        -20.989200592041016
      ],
      "min": [
        -11.365666389465332,
        14.925992012023926,
        -22.26949691772461
      ],
      "type": "VEC3"
    },
    {
      "bufferView": 2,
      "byteOffset": 403896,
      "componentType": 5126,
      "count": 90,
      "max": [
        0.9999998807907104,
        1.0,
        0.9999999403953552
      ],
      "min": [
        -0.9999999403953552,
        0.0,
        -0.9999999403953552
      ],
      "type": "VEC3"
    },
    {
      "bufferView": 1,
      "byteOffset": 134272,
      "componentType": 5126,
      "count": 90,
      "max": [
        0.8295713067054749,
        0.9913820624351501
      ],
      "min": [
        0.46579286456108093,
        0.9875268936157227
      ],
      "type": "VEC2"
    },
    {
      "bufferView": 0,
      "byteOffset": 157668,
      "componentType": 5125,
      "count": 132,
      "type": "SCALAR"
    },
    {
      "bufferView": 2,
      "byteOffset": 404976,
      "componentType": 5126,
      "count": 48,
      "max": [
        -37.2109489440918,
        65.94921875,
        44.944881439208984
      ],
      "min": [
        -37.260948181152344,
        29.353466033935547,
        5.231668472290039
      ],
      "type": "VEC3"
    },
    {
      "bufferView": 2,
      "byteOffset": 405552,
      "componentType": 5126,
      "count": 48,
      "max": [
        1.0,
        1.0,
        1.0
      ],
      "min": [
        -1.0,
        -1.0,
        -1.0
      ],
      "type": "VEC3"
    },
    {
      "bufferView": 1,
      "byteOffset": 134992,
      "componentType": 5126,
      "count": 48,
      "max": [
        0.9714286923408508,
        0.7918715476989746
      ],
      "min": [
        0.2627260982990265,
        0.0078125
      ],
      "type": "VEC2"
    },
    {
      "bufferView": 0,
      "byteOffset": 158196,
      "componentType": 5125,
      "count": 72,
      "type": "SCALAR"
    }
  ],
  "asset": {
    "extras": {
      "author": "ilesher (https://sketchfab.com/ilesher)",
      "license": "CC-BY-4.0 (http://creativecommons.org/licenses/by/4.0/)",
      "source": "https://sketchfab.com/3d-models/room-5a5e37f8e6de42b48f4e826abd0da21e",
      "title": "Room"
    },
    "generator": "Sketchfab-12.68.0",
    "version": "2.0"
  },
  "bufferViews": [
    {
      "buffer": 0,
      "byteLength": 158484,
      "name": "floatBufferViews",
      "target": 34963
    },
    {
      "buffer": 0,
      "byteLength": 135376,
      "byteOffset": 158484,
      "byteStride": 8,
      "name": "floatBufferViews",
      "target": 34962
    },
    {
      "buffer": 0,
      "byteLength": 406128,
      "byteOffset": 293860,
      "byteStride": 12,
      "name": "floatBufferViews",
      "target": 34962
    }
  ],
  "buffers": [
    {
      "byteLength": 699988,
      "uri": "scene.bin"
    }
  ],
  "materials": [
    {
      "doubleSided": true,
      "name": "color_plumb",
      "pbrMetallicRoughness": {
        "baseColorFactor": [
          0.2705,
          0.0231537,
          0.107022,
          1.0
        ],
        "metallicFactor": 0.0,
        "roughnessFactor": 0.6
      }
    },
    {
      "doubleSided": true,
      "name": "color_orange",
      "pbrMetallicRoughness": {
        "baseColorFactor": [
          0.947294,
          0.327785,
          0.0382041,
          1.0
        ],
        "metallicFactor": 0.0,
        "roughnessFactor": 0.6
      }
    },
    {
      "doubleSided": true,
      "name": "Color_pestachos",
      "pbrMetallicRoughness": {
        "baseColorFactor": [
          0.262251,
          0.283153,
          0.0356018,
          1.0
        ],
        "metallicFactor": 0.0,
        "roughnessFactor": 0.6
      }
    },
    {
      "doubleSided": true,
      "name": "color_red",
      "pbrMetallicRoughness": {
        "baseColorFactor": [
          0.973444,
          0.0612473,
          0.0437343,
          1.0
        ],
        "metallicFactor": 0.0,
        "roughnessFactor": 0.6
      }
    },
    {
      "doubleSided": true,
      "name": "Color_handle",
      "pbrMetallicRoughness": {
        "baseColorFactor": [
          0.049,
          0.049,
          0.049,
          1.0
        ],
        "metallicFactor": 0.0,
        "roughnessFactor": 0.6
      }
    },
    {
      "doubleSided": true,
      "name": "color_green",
      "pbrMetallicRoughness": {
        "baseColorFactor": [
          0.0382041,
          0.109461,
          0.0368897,
          1.0
        ],
        "metallicFactor": 0.0,
        "roughnessFactor": 0.6
      }
    },
    {
      "doubleSided": true,
      "name": "Color_rabbit",
      "pbrMetallicRoughness": {
        "baseColorFactor": [
          0.838,
          0.0,
          0.73149,
          1.0
        ],
        "metallicFactor": 0.0,
        "roughnessFactor": 0.6
      }
    },
    {
      "doubleSided": true,
      "name": "Color_Creme",
      "pbrMetallicRoughness": {
        "baseColorFactor": [
          0.814847,
          0.630766,
          0.439651,
          1.0
        ],
        "metallicFactor": 0.0,
        "roughnessFactor": 0.6
      }
    },
    {
      "doubleSided": true,
      "name": "floor",
      "pbrMetallicRoughness": {
        "baseColorFactor": [
          0.544139,
          0.602,
          0.100534,
          1.0
        ],
        "metallicFactor": 0.0,
        "roughnessFactor": 0.6
      }
    },
    {
      "doubleSided": true,
      "name": "Color_Dishes",
      "pbrMetallicRoughness": {
        "baseColorFactor": [
          0.391571,
          0.366255,
          0.278898,
          1.0
        ],
        "metallicFactor": 0.0,
        "roughnessFactor": 0.6
      }
    },
    {
      "doubleSided": true,
      "name": "color_light_green",
      "pbrMetallicRoughness": {
        "baseColorFactor": [
          0.434148,
          0.584078,
          0.558335,
          1.0
        ],
        "metallicFactor": 0.0,
        "roughnessFactor": 0.6
      }
    },
    {
      "doubleSided": true,
      "name": "color_grey",
      "pbrMetallicRoughness": {
        "baseColorFactor": [
          0.783544,
          0.814847,
          0.838794,
          1.0
        ],
        "metallicFactor": 0.0,
        "roughnessFactor": 0.6
      }
    },
    {
      "doubleSided": true,
      "name": "Color_bagel",
      "pbrMetallicRoughness": {
        "baseColorFactor": [
          0.346709,
          0.109461,
          0.0742136,
          1.0
        ],
        "metallicFactor": 0.0,
        "roughnessFactor": 0.6
      }
    },
    {
      "doubleSided": true,
      "name": "Color_Phone",
      "pbrMetallicRoughness": {
        "metallicFactor": 0.0,
        "roughnessFactor": 0.6
      }
    },
    {
      "doubleSided": true,
      "name": "Color_PhoneButton",
      "pbrMetallicRoughness": {
        "baseColorFactor": [
          0.702,
          0.702,
          0.702,
          1.0
        ],
        "metallicFactor": 0.0,
        "roughnessFactor": 0.6
      }
    },
    {
      "alphaMode": "BLEND",
      "doubleSided": true,
      "name": "color_glass",
      "pbrMetallicRoughness": {
        "baseColorFactor": [
          0.5,
          0.5,
          0.5,
          0.11723333880548918
        ],
        "metallicFactor": 0.0,
        "roughnessFactor": 0.5
      }
    }
  ],
  "meshes": [
    {
      "name": "Chair_3_color_plumb_0",
      "primitives": [
        {
          "attributes": {
            "NORMAL": 1,
            "POSITION": 0,
            "TEXCOORD_0": 2
          },
          "indices": 3,
          "material": 0,
          "mode": 4
        }
      ]
    },
    {
      "name": "Chair_3_color_orange_0",
      "primitives": [
        {
          "attributes": {
            "NORMAL": 5,
            "POSITION": 4,
            "TEXCOORD_0": 6
          },
          "indices": 7,
          "material": 1,
          "mode": 4
        }
      ]
    },
    {
      "name": "Chair_3_Color_pestachos_0",
      "primitives": [
        {
          "attributes": {
            "NORMAL": 9,
            "POSITION": 8,
            "TEXCOORD_0": 10
          },
          "indices": 11,
          "material": 2,
          "mode": 4
        }
      ]
    },
    {
      "name": "Chair_3_color_red_0",
      "primitives": [
        {
          "attributes": {
            "NORMAL": 13,
            "POSITION": 12,
            "TEXCOORD_0": 14
          },
          "indices": 15,
          "material": 3,
          "mode": 4
        }
      ]
    },
    {
      "name": "Chair_3_Color_handle_0",
      "primitives": [
        {
          "attributes": {
            "NORMAL": 17,
            "POSITION": 16,
            "TEXCOORD_0": 18
          },
          "indices": 19,
          "material": 4,
          "mode": 4
        }
      ]
    },
    {
      "name": "Chair_3_color_green_0",
      "primitives": [
        {
          "attributes": {
            "NORMAL": 21,
            "POSITION": 20,
            "TEXCOORD_0": 22
          },
          "indices": 23,
          "material": 5,
          "mode": 4
        }
      ]
    },
    {
      "name": "Chair_3_Color_rabbit_0",
      "primitives": [
        {
          "attributes": {
            "NORMAL": 25,
            "POSITION": 24,
            "TEXCOORD_0": 26
          },
          "indices": 27,
          "material": 6,
          "mode": 4
        }
      ]
    },
    {
      "name": "Chair_3_Color_Creme_0",
      "primitives": [
        {
          "attributes": {
            "NORMAL": 29,
            "POSITION": 28,
            "TEXCOORD_0": 30
          },
          "indices": 31,
          "material": 7,
          "mode": 4
        }
      ]
    },
    {
      "name": "Chair_3_floor_0",
      "primitives": [
        {
          "attributes": {
            "NORMAL": 33,
            "POSITION": 32,
            "TEXCOORD_0": 34
          },
          "indices": 35,
          "material": 8,
          "mode": 4
        }
      ]
    },
    {
      "name": "Chair_3_Color_Dishes_0",
      "primitives": [
        {
          "attributes": {
            "NORMAL": 37,
            "POSITION": 36,
            "TEXCOORD_0": 38
          },
          "indices": 39,
          "material": 9,
          "mode": 4
        }
      ]
    },
    {
      "name": "Chair_3_color_light_green_0",
      "primitives": [
        {
          "attributes": {
            "NORMAL": 41,
            "POSITION": 40,
            "TEXCOORD_0": 42
          },
          "indices": 43,
          "material": 10,
          "mode": 4
        }
      ]
    },
    {
      "name": "Chair_3_color_grey_0",
      "primitives": [
        {
          "attributes": {
            "NORMAL": 45,
            "POSITION": 44,
            "TEXCOORD_0": 46
          },
          "indices": 47,
          "material": 11,
          "mode": 4
        }
      ]
    },
    {
      "name": "Chair_3_Color_bagel_0",
      "primitives": [
        {
          "attributes": {
            "NORMAL": 49,
            "POSITION": 48,
            "TEXCOORD_0": 50
          },
          "indices": 51,
          "material": 12,
          "mode": 4
        }
      ]
    },
    {
      "name": "Chair_3_Color_Phone_0",
      "primitives": [
        {
          "attributes": {
            "NORMAL": 53,
            "POSITION": 52,
            "TEXCOORD_0": 54
          },
          "indices": 55,
          "material": 13,
          "mode": 4
        }
      ]
    },
    {
      "name": "Chair_3_Color_PhoneButton_0",
      "primitives": [
        {
          "attributes": {
            "NORMAL": 57,
            "POSITION": 56,
            "TEXCOORD_0": 58
          },
          "indices": 59,
          "material": 14,
          "mode": 4
        }
      ]
    },
    {
      "name": "Chair_3_color_glass_0",
      "primitives": [
        {
          "attributes": {
            "NORMAL": 61,
            "POSITION": 60,
            "TEXCOORD_0": 62
          },
          "indices": 63,
          "material": 15,
          "mode": 4
        }
      ]
    }
  ],
  "nodes": [
    {
      "children": [
        1
      ],
      "matrix": [
        1.0,
        0.0,
        0.0,
        0.0,
        0.0,
        2.220446049250313e-16,
        -1.0,
        0.0,
        0.0,
        1.0,
        2.220446049250313e-16,
        0.0,
        0.0,
        0.0,
        0.0,
        1.0
      ],
      "name": "Sketchfab_model"
    },
    {
      "children": [
        2
      ],
      "matrix": [
        1.0,
        0.0,
        0.0,
        0.0,
        0.0,
        0.0,
        1.0,
        0.0,
        0.0,
        -1.0,
        0.0,
        0.0,
        0.0,
        0.0,
        0.0,
        1.0
      ],
      "name": "15264fb27bf14ec7a8b74d8a7852979d.fbx"
    },
    {
      "children": [
        3
      ],
      "name": "RootNode"
    },
    {
      "children": [
        4,
        5,
        6,
        7,
        8,
        9,
        10,
        11,
        12,
        13,
        14,
        15,
        16,
        17,
        18,
        19
      ],
      "name": "Chair_3"
    },
    {
      "mesh": 0,
      "name": "Chair_3_color_plumb_0"
    },
    {
      "mesh": 1,
      "name": "Chair_3_color_orange_0"
    },
    {
      "mesh": 2,
      "name": "Chair_3_Color_pestachos_0"
    },
    {
      "mesh": 3,
      "name": "Chair_3_color_red_0"
    },
    {
      "mesh": 4,
      "name": "Chair_3_Color_handle_0"
    },
    {
      "mesh": 5,
      "name": "Chair_3_color_green_0"
    },
    {
      "mesh": 6,
      "name": "Chair_3_Color_rabbit_0"
    },
    {
      "mesh": 7,
      "name": "Chair_3_Color_Creme_0"
    },
    {
      "mesh": 8,
      "name": "Chair_3_floor_0"
    },
    {
      "mesh": 9,
      "name": "Chair_3_Color_Dishes_0"
    },
    {
      "mesh": 10,
      "name": "Chair_3_color_light_green_0"
    },
    {
      "mesh": 11,
      "name": "Chair_3_color_grey_0"
    },
    {
      "mesh": 12,
      "name": "Chair_3_Color_bagel_0"
    },
    {
      "mesh": 13,
      "name": "Chair_3_Color_Phone_0"
    },
    {
      "mesh": 14,
      "name": "Chair_3_Color_PhoneButton_0"
    },
    {
      "mesh": 15,
      "name": "Chair_3_color_glass_0"
    }
  ],
  "scene": 0,
  "scenes": [
    {
      "name": "Sketchfab_Scene",
      "nodes": [
        0
      ]
    }
  ]
}
